# xmcd
#
# Track frame offsets:
#	150
#	18212
#	33484
#	50787
#	65141
#	79468
#	95904
#	119552
#	133474
#	151536
#	166808
#	184111
#	198465
#	212792
#	229228
#	252876
#
# Disc length: 3557 seconds
#
# Revision: 0
# Processed by: cddbd v1.5.2PL0 Copyright (c) Steve Scherf et al.
# Submitted via: audiograbber 1.83.01
#
DISCID=ed0de310
DTITLE=Chartbuster Hot Hits Country July 2009 - CB60411
DYEAR=2009
DGENRE=Country
TTITLE0=Rascal Flatts - Unstoppable
TTITLE1=Swift, Taylor - Crazier
TTITLE2=Green, Pat - What I'm For
TTITLE3=Judd, Wynonna - I Hear You Knocking
TTITLE4=Lawrence, Tracy - Up To Him
TTITLE5=Newfield, Tracy - What I'm Waiting For
TTITLE6=Adkins, Trace - Til The Last Shot's Fired
TTITLE7=Williams, Holly - Mama
TTITLE8=Rascal Flatts - Unstoppable
TTITLE9=Swift, Taylor - Crazier
TTITLE10=Green, Pat - What I'm For
TTITLE11=Judd, Wynonna - I Hear You Knocking
TTITLE12=Lawrence, Tracy - Up To Him
TTITLE13=Newfield, Tracy - What I'm Waiting For
TTITLE14=Adkins, Trace - Til The Last Shot's Fired
TTITLE15=Williams, Holly - Mama
EXTD=
EXTT0=
EXTT1=
EXTT2=
EXTT3=
EXTT4=
EXTT5=
EXTT6=
EXTT7=
EXTT8=
EXTT9=
EXTT10=
EXTT11=
EXTT12=
EXTT13=
EXTT14=
EXTT15=
PLAYORDER=
